<?xml version="1.0" encoding="UTF-8"?>
<svg version="1.1" xmlns="http://www.w3.org/2000/svg" width="500" height="500">
<path d="M0 0 C0.94228958 -0.00701431 1.88457916 -0.01402863 2.85542297 -0.02125549 C5.88022698 -0.03866509 8.90483523 -0.04510788 11.9296875 -0.046875 C12.9628006 -0.04754974 13.9959137 -0.04822449 15.06033325 -0.04891968 C30.18934566 -0.03320176 44.90659231 0.3275173 59.8046875 3.203125 C60.75166504 3.38004883 61.69864258 3.55697266 62.67431641 3.73925781 C76.30732559 6.34137165 89.62845385 9.85221088 102.8046875 14.203125 C103.46919922 14.4201709 104.13371094 14.6372168 104.81835938 14.86083984 C123.65839188 21.13281586 142.26893434 30.2074949 158.8046875 41.203125 C159.47902832 41.65123535 160.15336914 42.0993457 160.84814453 42.56103516 C171.10279829 49.44953296 180.62763062 56.94297185 189.8046875 65.203125 C190.37203613 65.70875977 190.93938477 66.21439453 191.52392578 66.73535156 C232.78350033 103.58470223 259.08198299 155.88508292 262.46289062 211.234375 C265.18641334 266.94592829 245.87271146 320.15657718 208.71875 361.6953125 C205.79452243 364.90994105 202.81054287 368.06495024 199.8046875 371.203125 C198.74121094 372.32847656 198.74121094 372.32847656 197.65625 373.4765625 C192.43096193 378.87247222 186.6914031 383.54959488 180.8046875 388.203125 C179.32162109 389.39421875 179.32162109 389.39421875 177.80859375 390.609375 C131.01561159 427.52968052 72.36762633 445.72541411 13.1171875 445.515625 C12.15378448 445.51513153 11.19038147 445.51463806 10.19778442 445.51412964 C-2.5723556 445.49412517 -15.02202552 445.11210139 -27.63671875 442.95703125 C-28.37978271 442.83440918 -29.12284668 442.71178711 -29.88842773 442.58544922 C-31.52400934 442.3143813 -33.15615037 442.02216977 -34.78540039 441.71533203 C-42.79098229 440.52269147 -48.25715818 442.66052075 -55.5078125 445.953125 C-57.90040721 446.98108161 -60.29501743 448.0043571 -62.69140625 449.0234375 C-63.30598694 449.28744354 -63.92056763 449.55144958 -64.55377197 449.82345581 C-108.44123272 468.60349544 -173.15106803 494.85215174 -221.1953125 479.203125 C-231.51393054 474.88450696 -231.51393054 474.88450696 -235.1953125 471.203125 C-236.53886755 465.76829331 -236.7651988 460.40756172 -234.44140625 455.25390625 C-228.89310316 446.12268644 -220.3172264 439.95325666 -211.97851562 433.58105469 C-193.63217113 419.40433394 -175.26754911 402.557011 -167.1953125 380.203125 C-167.32977217 377.26602165 -167.59763042 375.85989994 -169.578125 373.68359375 C-170.15304688 373.25691406 -170.72796875 372.83023437 -171.3203125 372.390625 C-174.74281661 369.6567955 -177.51004226 366.70574515 -180.3359375 363.3671875 C-181.58326651 361.91546424 -182.8656538 360.49319662 -184.1796875 359.1015625 C-210.51444138 331.13290053 -228.57652892 293.9207089 -235.1953125 256.203125 C-235.37263916 255.22666016 -235.54996582 254.25019531 -235.73266602 253.24414062 C-237.40853839 243.01139964 -237.55186942 232.92534468 -237.5078125 222.578125 C-237.50598969 221.69161255 -237.50416687 220.8051001 -237.50228882 219.89172363 C-237.45795959 207.10122577 -237.06515651 194.71564488 -234.1953125 182.203125 C-234.02370605 181.40181152 -233.85209961 180.60049805 -233.67529297 179.77490234 C-223.26965944 131.61513821 -195.0142734 87.51529558 -156.1953125 57.203125 C-155.23496094 56.42582031 -154.27460938 55.64851563 -153.28515625 54.84765625 C-110.77775025 21.04593896 -54.49079405 0.27268355 0 0 Z M-150.1953125 80.203125 C-151.04222656 80.92757812 -151.88914062 81.65203125 -152.76171875 82.3984375 C-187.96340004 113.02333519 -211.54445997 157.73765078 -216.1953125 204.203125 C-216.31647128 206.89986868 -216.4041886 209.57261996 -216.43359375 212.26953125 C-216.4433876 213.01734863 -216.45318146 213.76516602 -216.46327209 214.53564453 C-216.6390692 231.44892305 -216.38054219 247.70427433 -212.1953125 264.203125 C-211.98100586 265.06099609 -211.76669922 265.91886719 -211.54589844 266.80273438 C-208.36032526 279.16479855 -203.79579196 290.74723291 -198.1953125 302.203125 C-197.87836426 302.85619629 -197.56141602 303.50926758 -197.23486328 304.18212891 C-189.62444355 319.65941071 -179.64476511 333.35908353 -168.1953125 346.203125 C-167.7415625 346.71858887 -167.2878125 347.23405273 -166.8203125 347.76513672 C-159.3120035 356.27864192 -151.41112856 364.51043259 -142.1953125 371.203125 C-149.18556222 405.37256934 -170.96078332 428.86551927 -197.93359375 449.66015625 C-201.08835871 452.09728536 -204.14695189 454.63438542 -207.1953125 457.203125 C-197.04641784 463.96905477 -182.05715454 461.53751982 -170.6953125 459.640625 C-169.08426636 459.37282227 -169.08426636 459.37282227 -167.44067383 459.09960938 C-128.37816968 452.30956318 -89.24855344 438.56344957 -53.01342773 422.62597656 C-45.16763313 419.20071649 -40.92626406 419.26561157 -32.7578125 421.015625 C28.46744542 433.01600364 97.31823722 420.141492 149.3203125 385.21875 C161.99281897 376.49651225 173.61305093 366.73453553 184.8046875 356.203125 C185.46339844 355.58695312 186.12210937 354.97078125 186.80078125 354.3359375 C191.95061636 349.36450315 196.39785601 343.83290494 200.8046875 338.203125 C201.4551001 337.37530518 201.4551001 337.37530518 202.11865234 336.53076172 C209.80466682 326.66616542 216.07764875 316.31049268 221.8046875 305.203125 C222.2994458 304.25252197 222.2994458 304.25252197 222.80419922 303.28271484 C244.06993056 261.89624449 246.98545964 212.84474054 233.36401367 168.63354492 C222.18127769 134.33913666 201.07592689 101.00566178 172.8046875 78.203125 C171.70686702 77.29316685 170.60922856 76.38298907 169.51171875 75.47265625 C95.93980655 14.98604111 -8.71567253 4.32795947 -150.1953125 80.203125 Z " fill="#000000" transform="translate(237.1953125,9.796875)"/>
<path d="M0 0 C1.10472656 -0.00257813 2.20945313 -0.00515625 3.34765625 -0.0078125 C4.50136719 -0.00007812 5.65507812 0.00765625 6.84375 0.015625 C7.99746094 0.00789062 9.15117187 0.00015625 10.33984375 -0.0078125 C11.44457031 -0.00523437 12.54929687 -0.00265625 13.6875 0 C15.20633789 0.00338379 15.20633789 0.00338379 16.75585938 0.00683594 C19.34375 0.265625 19.34375 0.265625 22.34375 2.265625 C22.72127342 4.70818329 22.72127342 4.70818329 22.72470093 7.84558105 C22.7331604 9.03183578 22.74161987 10.21809052 22.75033569 11.44029236 C22.744263 12.74841385 22.73819031 14.05653534 22.73193359 15.40429688 C22.73599695 16.79049595 22.7413375 18.1766918 22.74786377 19.56288147 C22.76157142 23.33351859 22.75622466 27.10391021 22.74672651 30.87455177 C22.73914768 34.81477155 22.74617056 38.75496986 22.75088501 42.69519043 C22.75634777 49.31294542 22.74913737 55.93060008 22.73486328 62.54833984 C22.71853571 70.20670153 22.72382386 77.86482365 22.7403425 85.52317953 C22.75394261 92.09052126 22.75588428 98.65779074 22.74802649 105.225142 C22.74334182 109.15102473 22.74274678 113.07679474 22.75263596 117.00267029 C22.76128201 120.69302561 22.75532745 124.38307113 22.73795319 128.07339287 C22.73207344 130.07924342 22.74102399 132.08512008 22.75033569 134.09095764 C22.74187622 135.27721237 22.73341675 136.4634671 22.72470093 137.68566895 C22.72356985 138.72101021 22.72243877 139.75635147 22.72127342 140.82306671 C22.59669069 141.62911095 22.47210796 142.43515518 22.34375 143.265625 C17.68335179 146.37255714 12.88660279 145.5941588 7.40625 145.578125 C6.30861328 145.59423828 5.21097656 145.61035156 4.08007812 145.62695312 C3.02369141 145.62759766 1.96730469 145.62824219 0.87890625 145.62890625 C-0.56923462 145.63337769 -0.56923462 145.63337769 -2.04663086 145.63793945 C-5.19323605 145.18901318 -6.39300406 144.48331661 -8.65625 142.265625 C-9.15682125 139.71563625 -9.15682125 139.71563625 -9.15745544 136.6033783 C-9.16728958 135.42416306 -9.17712372 134.24494781 -9.18725586 133.02999878 C-9.17758789 131.7348233 -9.16791992 130.43964783 -9.15795898 129.10522461 C-9.16174158 127.72872871 -9.16724114 126.35223662 -9.17433167 124.97575378 C-9.18831034 121.23608557 -9.1771006 117.49687618 -9.16062045 113.75723338 C-9.14678795 109.84771902 -9.15322786 105.93823177 -9.15675354 102.02870178 C-9.15945678 95.46396472 -9.14596931 88.89941039 -9.12280273 82.3347168 C-9.0961811 74.73824053 -9.09444892 67.14206962 -9.1061911 59.54556268 C-9.11695832 52.24501689 -9.11079088 44.94458186 -9.09663582 37.64404488 C-9.09086791 34.53360955 -9.09096494 31.42325507 -9.09570122 28.31281853 C-9.10046255 24.6527999 -9.09040496 20.99311702 -9.06874657 17.33316231 C-9.06049927 15.3440321 -9.06704123 13.35485798 -9.07394409 11.36572266 C-9.06403946 10.18932724 -9.05413483 9.01293182 -9.04393005 7.80088806 C-9.04150016 6.77421996 -9.03907026 5.74755186 -9.03656673 4.68977261 C-8.91106221 3.8898039 -8.78555769 3.08983519 -8.65625 2.265625 C-5.25067548 -0.00475801 -3.99905826 0.00890942 0 0 Z " fill="#000000" transform="translate(243.65625,199.734375)"/>
<path d="M0 0 C0.66209473 -0.00095673 1.32418945 -0.00191345 2.00634766 -0.00289917 C3.40852961 -0.00358076 4.8107147 -0.00172792 6.21289062 0.00244141 C8.36595713 0.00779004 10.51881502 0.0024958 12.671875 -0.00390625 C14.03125046 -0.00324546 15.3906258 -0.00196429 16.75 0 C18.61785156 0.00169189 18.61785156 0.00169189 20.5234375 0.00341797 C23.375 0.1328125 23.375 0.1328125 24.375 1.1328125 C24.4757812 3.49679718 24.51473215 5.83092561 24.5078125 8.1953125 C24.50876923 8.90179932 24.50972595 9.60828613 24.51071167 10.33618164 C24.51139333 11.83252043 24.50954005 13.32886217 24.50537109 14.82519531 C24.50002257 17.12311407 24.50531651 19.42083736 24.51171875 21.71875 C24.51105797 23.16927127 24.5097768 24.61979241 24.5078125 26.0703125 C24.50983673 26.7619751 24.51186096 27.4536377 24.51394653 28.16625977 C24.48995224 33.01786026 24.48995224 33.01786026 23.375 34.1328125 C21.16849344 34.23293651 18.95877614 34.2636243 16.75 34.265625 C16.08790527 34.26658173 15.42581055 34.26753845 14.74365234 34.26852417 C13.34147039 34.26920576 11.9392853 34.26735292 10.53710938 34.26318359 C8.38404287 34.25783496 6.23118498 34.2631292 4.078125 34.26953125 C2.71874954 34.26887046 1.3593742 34.26758929 0 34.265625 C-1.24523437 34.26449707 -2.49046875 34.26336914 -3.7734375 34.26220703 C-6.625 34.1328125 -6.625 34.1328125 -7.625 33.1328125 C-7.7257812 30.76882782 -7.76473215 28.43469939 -7.7578125 26.0703125 C-7.75876923 25.36382568 -7.75972595 24.65733887 -7.76071167 23.92944336 C-7.76139333 22.43310457 -7.75954005 20.93676283 -7.75537109 19.44042969 C-7.75002257 17.14251093 -7.75531651 14.84478764 -7.76171875 12.546875 C-7.76105797 11.09635373 -7.7597768 9.64583259 -7.7578125 8.1953125 C-7.75983673 7.5036499 -7.76186096 6.8119873 -7.76394653 6.09936523 C-7.73076824 -0.60922143 -6.47367699 0.00586384 0 0 Z " fill="#000000" transform="translate(241.625,127.8671875)"/>
</svg>
