<?xml version="1.0" encoding="UTF-8"?>
<svg version="1.1" xmlns="http://www.w3.org/2000/svg" width="100" height="100">
<path d="M0 0 C23.76 0 47.52 0 72 0 C72 14.19 72 28.38 72 43 C73.32 43.66 74.64 44.32 76 45 C77.6328125 46.76953125 77.6328125 46.76953125 79.125 48.8125 C79.62257813 49.47894531 80.12015625 50.14539062 80.6328125 50.83203125 C83.6739479 55.65440311 84.41601438 59.97965321 84.4375 65.625 C84.44136719 66.32560547 84.44523437 67.02621094 84.44921875 67.74804688 C84.30609628 74.26608286 82.3251136 79.3948085 79 85 C79.80566406 85.74765625 80.61132812 86.4953125 81.44140625 87.265625 C82.48241554 88.25974198 83.52274524 89.25457096 84.5625 90.25 C85.09552734 90.74113281 85.62855469 91.23226562 86.17773438 91.73828125 C87.69140625 93.203125 87.69140625 93.203125 90 96 C89.83984375 98.359375 89.83984375 98.359375 89 100 C84.68269587 99.52590352 82.66352539 96.96603297 79.75 93.9375 C78.41195312 92.55884766 78.41195312 92.55884766 77.046875 91.15234375 C76.37140625 90.44207031 75.6959375 89.73179688 75 89 C74.3915625 89.3609375 73.783125 89.721875 73.15625 90.09375 C64.80897666 94.51289471 57.3019677 95.14839107 48 94 C45.69 93.01 43.38 92.02 41 91 C20.705 90.505 20.705 90.505 0 90 C0 60.3 0 30.6 0 0 Z M4 4 C4 31.06 4 58.12 4 86 C14.23 86 24.46 86 35 86 C32.69 81.38 30.38 76.76 28 72 C24.7 72 21.4 72 18 72 C18 70.68 18 69.36 18 68 C21.3 68 24.6 68 28 68 C28 65.36 28 62.72 28 60 C24.7 60 21.4 60 18 60 C18 58.68 18 57.36 18 56 C18.74765625 56.06960937 19.4953125 56.13921875 20.265625 56.2109375 C23.27394234 56.3763162 26.01516763 56.42947228 29 56 C32.24609338 52.52903255 32.24609338 52.52903255 33 48 C28.05 48 23.1 48 18 48 C18 46.68 18 45.36 18 44 C18.83023682 44.03927612 18.83023682 44.03927612 19.67724609 44.0793457 C33.1672613 44.89673096 33.1672613 44.89673096 45.4296875 40.1171875 C52.02583746 37.25016791 61.22613512 38.30653378 68 40 C68 28.12 68 16.24 68 4 C46.88 4 25.76 4 4 4 Z M37.0546875 51.16796875 C32.44612913 57.73784383 31.82750246 64.16330704 33 72 C35.16808721 79.13518649 40.20696615 84.74293043 46.78515625 88.26953125 C53.0508016 90.33597866 60.50728369 90.09848766 66.5 87.3125 C72.55276634 83.66303794 76.90906429 78.78715496 79 72 C79.99593921 64.5254259 79.43364893 58.21580194 75 52 C70.70156144 46.88834334 66.43056135 43.48829158 59.7890625 42.54296875 C50.18493507 42.09505391 43.55622306 43.92228153 37.0546875 51.16796875 Z " fill="#000000" transform="translate(10,0)"/>
<path d="M0 0 C9.9 0 19.8 0 30 0 C30 1.98 30 3.96 30 6 C26.04907941 6.07409401 22.09842706 6.12857406 18.14697266 6.16479492 C16.14080626 6.18732251 14.13483474 6.2254357 12.12890625 6.26367188 C10.87207031 6.27333984 9.61523438 6.28300781 8.3203125 6.29296875 C6.57645264 6.31653442 6.57645264 6.31653442 4.79736328 6.34057617 C3.8742334 6.22818604 2.95110352 6.1157959 2 6 C0 3 0 3 0 0 Z " fill="#000000" transform="translate(46,70)"/>
<path d="M0 0 C1.12591553 0.00523682 2.25183105 0.01047363 3.41186523 0.01586914 C4.62680664 0.0190918 5.84174805 0.02231445 7.09350586 0.02563477 C8.37290039 0.03401367 9.65229492 0.04239258 10.97045898 0.05102539 C12.2537207 0.05553711 13.53698242 0.06004883 14.85913086 0.06469727 C18.04211921 0.07652994 21.22501661 0.09301471 24.40795898 0.11352539 C24.40795898 2.09352539 24.40795898 4.07352539 24.40795898 6.11352539 C14.83795898 6.11352539 5.26795898 6.11352539 -4.59204102 6.11352539 C-3.39911057 0.14887317 -3.39911057 0.14887317 0 0 Z " fill="#000000" transform="translate(51.592041015625,53.886474609375)"/>
<path d="M0 0 C12.54 0 25.08 0 38 0 C38 1.32 38 2.64 38 4 C25.46 4 12.92 4 0 4 C0 2.68 0 1.36 0 0 Z " fill="#000000" transform="translate(28,32)"/>
<path d="M0 0 C12.54 0 25.08 0 38 0 C38 1.32 38 2.64 38 4 C25.46 4 12.92 4 0 4 C0 2.68 0 1.36 0 0 Z " fill="#000000" transform="translate(28,20)"/>
</svg>
