<?xml version="1.0" encoding="UTF-8"?>
<svg version="1.1" xmlns="http://www.w3.org/2000/svg" width="100" height="100">
<path d="M0 0 C0.9075 0.00257812 1.815 0.00515625 2.75 0.0078125 C4.11125 0.00394531 4.11125 0.00394531 5.5 0 C7.75 0.1328125 7.75 0.1328125 8.75 1.1328125 C8.75 3.4428125 8.75 5.7528125 8.75 8.1328125 C20.63 8.1328125 32.51 8.1328125 44.75 8.1328125 C44.75 5.8228125 44.75 3.5128125 44.75 1.1328125 C45.75 0.1328125 45.75 0.1328125 48 0 C48.9075 0.00257812 49.815 0.00515625 50.75 0.0078125 C52.11125 0.00394531 52.11125 0.00394531 53.5 0 C55.75 0.1328125 55.75 0.1328125 56.75 1.1328125 C56.79092937 3.46578683 56.79241723 5.79986475 56.75 8.1328125 C58.35681641 8.11541016 58.35681641 8.11541016 59.99609375 8.09765625 C61.39322743 8.08827951 62.79036299 8.07917919 64.1875 8.0703125 C64.89455078 8.06193359 65.60160156 8.05355469 66.33007812 8.04492188 C68.13693559 8.03627662 69.94387603 8.08061239 71.75 8.1328125 C73.53608057 9.91889307 72.87625961 12.32544785 72.88552856 14.70379639 C72.88249222 15.90229218 72.88249222 15.90229218 72.87939453 17.125 C72.88202301 18.3810202 72.88202301 18.3810202 72.88470459 19.66241455 C72.88912401 22.44423464 72.8861848 25.22599171 72.8828125 28.0078125 C72.88348551 29.93212903 72.88445552 31.85644548 72.88571167 33.78076172 C72.88718877 37.81934415 72.88503371 41.8579045 72.88037109 45.89648438 C72.8746738 51.08549761 72.87795274 56.27445913 72.88394356 61.46347046 C72.88754886 65.4387247 72.88641073 69.41396659 72.88381577 73.38922119 C72.88314641 75.3030803 72.88397522 77.21694052 72.88629532 79.13079834 C72.88882133 81.800771 72.88498198 84.4706587 72.87939453 87.140625 C72.88141876 87.93962219 72.88344299 88.73861938 72.88552856 89.56182861 C72.8642625 95.01855 72.8642625 95.01855 71.75 96.1328125 C68.95547729 96.23333125 66.18563645 96.26897144 63.390625 96.26220703 C62.07608337 96.26483551 62.07608337 96.26483551 60.73498535 96.26751709 C57.82330373 96.27193682 54.9116823 96.26899719 52 96.265625 C49.98600248 96.266298 47.97200505 96.267268 45.95800781 96.26852417 C41.73111195 96.27000131 37.50423717 96.26784608 33.27734375 96.26318359 C27.84619468 96.2574863 22.41509501 96.26076522 16.98394775 96.26675606 C12.82340113 96.27036124 8.66286631 96.26922328 4.50231934 96.26662827 C2.49914545 96.26595888 0.49597051 96.26678783 -1.50720215 96.26910782 C-4.30170552 96.27163365 -7.09612771 96.26779474 -9.890625 96.26220703 C-10.72702515 96.26423126 -11.56342529 96.26625549 -12.4251709 96.26834106 C-18.13573758 96.24707492 -18.13573758 96.24707492 -19.25 95.1328125 C-19.35045053 92.46031183 -19.38616649 89.81362669 -19.37939453 87.140625 C-19.38114685 86.3032782 -19.38289917 85.4659314 -19.38470459 84.60321045 C-19.38912401 81.82139036 -19.3861848 79.03963329 -19.3828125 76.2578125 C-19.38348551 74.33349597 -19.38445552 72.40917952 -19.38571167 70.48486328 C-19.38718877 66.44628085 -19.38503371 62.4077205 -19.38037109 58.36914062 C-19.3746738 53.18012739 -19.37795274 47.99116587 -19.38394356 42.80215454 C-19.38754886 38.8269003 -19.38641073 34.85165841 -19.38381577 30.87640381 C-19.38314641 28.9625447 -19.38397522 27.04868448 -19.38629532 25.13482666 C-19.38882133 22.464854 -19.38498198 19.7949663 -19.37939453 17.125 C-19.38141876 16.32600281 -19.38344299 15.52700562 -19.38552856 14.70379639 C-19.3642625 9.247075 -19.3642625 9.247075 -18.25 8.1328125 C-15.71950598 8.05967683 -13.21695163 8.04033723 -10.6875 8.0703125 C-9.97658203 8.07482422 -9.26566406 8.07933594 -8.53320312 8.08398438 C-6.77209987 8.09580386 -5.01103964 8.11373987 -3.25 8.1328125 C-3.270625 6.9984375 -3.29125 5.8640625 -3.3125 4.6953125 C-3.2334746 0.19086482 -3.2334746 0.19086482 0 0 Z M0.75 4.1328125 C0.75 8.0928125 0.75 12.0528125 0.75 16.1328125 C2.07 16.1328125 3.39 16.1328125 4.75 16.1328125 C4.75 12.1728125 4.75 8.2128125 4.75 4.1328125 C3.43 4.1328125 2.11 4.1328125 0.75 4.1328125 Z M48.75 4.1328125 C48.75 8.0928125 48.75 12.0528125 48.75 16.1328125 C50.07 16.1328125 51.39 16.1328125 52.75 16.1328125 C52.75 12.1728125 52.75 8.2128125 52.75 4.1328125 C51.43 4.1328125 50.11 4.1328125 48.75 4.1328125 Z M-15.25 12.1328125 C-15.25 16.7528125 -15.25 21.3728125 -15.25 26.1328125 C12.47 26.1328125 40.19 26.1328125 68.75 26.1328125 C68.75 21.5128125 68.75 16.8928125 68.75 12.1328125 C64.79 12.1328125 60.83 12.1328125 56.75 12.1328125 C56.42 14.4428125 56.09 16.7528125 55.75 19.1328125 C52.45 19.1328125 49.15 19.1328125 45.75 19.1328125 C45.255 15.6678125 45.255 15.6678125 44.75 12.1328125 C32.87 12.1328125 20.99 12.1328125 8.75 12.1328125 C8.42 14.4428125 8.09 16.7528125 7.75 19.1328125 C4.45 19.1328125 1.15 19.1328125 -2.25 19.1328125 C-2.58 16.8228125 -2.91 14.5128125 -3.25 12.1328125 C-7.21 12.1328125 -11.17 12.1328125 -15.25 12.1328125 Z M-15.25 30.1328125 C-15.25 50.5928125 -15.25 71.0528125 -15.25 92.1328125 C12.47 92.1328125 40.19 92.1328125 68.75 92.1328125 C68.75 71.6728125 68.75 51.2128125 68.75 30.1328125 C41.03 30.1328125 13.31 30.1328125 -15.25 30.1328125 Z " fill="#000000" transform="translate(23.25,-0.1328125)"/>
<path d="M0 0 C19.8 0 39.6 0 60 0 C60 15.18 60 30.36 60 46 C40.2 46 20.4 46 0 46 C0 30.82 0 15.64 0 0 Z M4 4 C4 7.3 4 10.6 4 14 C7.3 14 10.6 14 14 14 C14 10.7 14 7.4 14 4 C10.7 4 7.4 4 4 4 Z M18 4 C18 7.3 18 10.6 18 14 C21.3 14 24.6 14 28 14 C28 10.7 28 7.4 28 4 C24.7 4 21.4 4 18 4 Z M32 4 C32 7.3 32 10.6 32 14 C35.3 14 38.6 14 42 14 C42 10.7 42 7.4 42 4 C38.7 4 35.4 4 32 4 Z M46 4 C46 7.3 46 10.6 46 14 C49.3 14 52.6 14 56 14 C56 10.7 56 7.4 56 4 C52.7 4 49.4 4 46 4 Z M4 18 C4 21.3 4 24.6 4 28 C7.3 28 10.6 28 14 28 C14 24.7 14 21.4 14 18 C10.7 18 7.4 18 4 18 Z M18 18 C18 21.3 18 24.6 18 28 C21.3 28 24.6 28 28 28 C28 24.7 28 21.4 28 18 C24.7 18 21.4 18 18 18 Z M32 18 C32 21.3 32 24.6 32 28 C35.3 28 38.6 28 42 28 C42 24.7 42 21.4 42 18 C38.7 18 35.4 18 32 18 Z M46 18 C46 21.3 46 24.6 46 28 C49.3 28 52.6 28 56 28 C56 24.7 56 21.4 56 18 C52.7 18 49.4 18 46 18 Z M4 32 C4 35.3 4 38.6 4 42 C7.3 42 10.6 42 14 42 C14 38.7 14 35.4 14 32 C10.7 32 7.4 32 4 32 Z M18 32 C18 35.3 18 38.6 18 42 C21.3 42 24.6 42 28 42 C28 38.7 28 35.4 28 32 C24.7 32 21.4 32 18 32 Z M32 32 C32 35.3 32 38.6 32 42 C35.3 42 38.6 42 42 42 C42 38.7 42 35.4 42 32 C38.7 32 35.4 32 32 32 Z M46 32 C46 35.3 46 38.6 46 42 C49.3 42 52.6 42 56 42 C56 38.7 56 35.4 56 32 C52.7 32 49.4 32 46 32 Z " fill="#000000" transform="translate(20,38)"/>
</svg>
