<?xml version="1.0" encoding="UTF-8"?>
<svg version="1.1" xmlns="http://www.w3.org/2000/svg" width="100" height="100">
<path d="M0 0 C1.43158447 -0.00945648 1.43158447 -0.00945648 2.89208984 -0.019104 C3.92543457 -0.01505554 4.9587793 -0.01100708 6.0234375 -0.00683594 C7.08127441 -0.00874939 8.13911133 -0.01066284 9.22900391 -0.01263428 C11.46842689 -0.01399696 13.70785776 -0.01029476 15.94726562 -0.00195312 C19.38429427 0.00874504 22.8208002 -0.00184581 26.2578125 -0.01464844 C28.42968866 -0.01332686 30.60156449 -0.0107645 32.7734375 -0.00683594 C33.80678223 -0.0108844 34.84012695 -0.01493286 35.90478516 -0.019104 C36.8591748 -0.01279968 37.81356445 -0.00649536 38.796875 0 C39.63911621 0.00159119 40.48135742 0.00318237 41.34912109 0.00482178 C43.3984375 0.25878906 43.3984375 0.25878906 45.3984375 2.25878906 C45.5234375 5.38378906 45.5234375 5.38378906 45.3984375 8.25878906 C46.25621292 8.25212723 46.25621292 8.25212723 47.13131714 8.24533081 C53.06815092 8.20117955 59.00493828 8.17095694 64.94189453 8.14892578 C67.15936171 8.13885082 69.37681555 8.12519047 71.59423828 8.10791016 C74.77640062 8.08372743 77.95838774 8.07232109 81.140625 8.06347656 C82.63443192 8.04799271 82.63443192 8.04799271 84.15841675 8.03219604 C85.53962204 8.03196945 85.53962204 8.03196945 86.94873047 8.03173828 C87.7614743 8.02729706 88.57421814 8.02285583 89.41159058 8.01828003 C91.3984375 8.25878906 91.3984375 8.25878906 93.3984375 10.25878906 C93.65240479 12.91552734 93.65240479 12.91552734 93.65722656 16.32910156 C93.66353088 17.60382324 93.66983521 18.87854492 93.67633057 20.19189453 C93.67275089 21.58919411 93.66864896 22.98649243 93.6640625 24.38378906 C93.66540921 25.81103583 93.66734979 27.23828215 93.66986084 28.66552734 C93.67281184 31.65824751 93.66851532 34.65084837 93.65917969 37.64355469 C93.64778505 41.4839528 93.65434467 45.32407138 93.66632462 49.16445923 C93.67354393 52.11208206 93.67125498 55.05963837 93.66606903 58.00726318 C93.66473273 59.42348259 93.66637959 60.839708 93.67102814 62.25592041 C93.67609425 64.23343799 93.66700658 66.21097668 93.65722656 68.18847656 C93.65563538 69.31495605 93.65404419 70.44143555 93.65240479 71.60205078 C93.3984375 74.25878906 93.3984375 74.25878906 91.3984375 76.25878906 C89.51904297 76.48583984 89.51904297 76.48583984 87.265625 76.45410156 C86.45996094 76.44765625 85.65429688 76.44121094 84.82421875 76.43457031 C83.98246094 76.4178125 83.14070313 76.40105469 82.2734375 76.38378906 C81.42394531 76.37476562 80.57445313 76.36574219 79.69921875 76.35644531 C77.59883866 76.33284554 75.49860306 76.29697389 73.3984375 76.25878906 C73.3984375 74.93878906 73.3984375 73.61878906 73.3984375 72.25878906 C72.0784375 72.25878906 70.7584375 72.25878906 69.3984375 72.25878906 C69.3984375 73.57878906 69.3984375 74.89878906 69.3984375 76.25878906 C52.2384375 76.25878906 35.0784375 76.25878906 17.3984375 76.25878906 C17.3984375 74.93878906 17.3984375 73.61878906 17.3984375 72.25878906 C16.0784375 72.25878906 14.7584375 72.25878906 13.3984375 72.25878906 C13.3984375 73.57878906 13.3984375 74.89878906 13.3984375 76.25878906 C10.43986341 76.31258132 7.48226029 76.35235999 4.5234375 76.38378906 C3.68167969 76.40054688 2.83992187 76.41730469 1.97265625 76.43457031 C1.16699219 76.44101563 0.36132812 76.44746094 -0.46875 76.45410156 C-1.21237793 76.4645752 -1.95600586 76.47504883 -2.72216797 76.48583984 C-4.6015625 76.25878906 -4.6015625 76.25878906 -6.6015625 74.25878906 C-6.85552979 71.29833984 -6.85552979 71.29833984 -6.86035156 67.45410156 C-6.8638562 66.75476501 -6.86736084 66.05542847 -6.87097168 65.3348999 C-6.87979126 63.01776268 -6.8739392 60.70092952 -6.8671875 58.38378906 C-6.86853409 56.77718039 -6.87047457 55.17057212 -6.87298584 53.56396484 C-6.8759374 50.19462205 -6.87163847 46.82538519 -6.86230469 43.45605469 C-6.85091008 39.13139412 -6.85746939 34.80698178 -6.86944962 30.48233032 C-6.87666738 27.16412476 -6.87438069 23.84597831 -6.86919403 20.527771 C-6.8678573 18.93292207 -6.86950608 17.33806782 -6.87415314 15.7432251 C-6.87921706 13.51649708 -6.87151038 11.2901743 -6.86035156 9.06347656 C-6.85876038 7.79487793 -6.85716919 6.5262793 -6.85552979 5.21923828 C-6.43372087 0.30229051 -4.42975223 0.00836882 0 0 Z M-2.6015625 6.25878906 C-2.90904073 9.03706734 -2.90904073 9.03706734 -2.86035156 12.32910156 C-2.86665588 13.60382324 -2.87296021 14.87854492 -2.87945557 16.19189453 C-2.87587589 17.58919411 -2.87177396 18.98649243 -2.8671875 20.38378906 C-2.86853421 21.81103583 -2.87047479 23.23828215 -2.87298584 24.66552734 C-2.87593684 27.65824751 -2.87164032 30.65084837 -2.86230469 33.64355469 C-2.85091005 37.4839528 -2.85746967 41.32407138 -2.86944962 45.16445923 C-2.87666893 48.11208206 -2.87437998 51.05963837 -2.86919403 54.00726318 C-2.86785773 55.42348259 -2.86950459 56.839708 -2.87415314 58.25592041 C-2.87921925 60.23343799 -2.87013158 62.21097668 -2.86035156 64.18847656 C-2.85876038 65.31495605 -2.85716919 66.44143555 -2.85552979 67.60205078 C-2.87123065 70.41352742 -2.87123065 70.41352742 -0.6015625 72.25878906 C1.83856699 72.50166395 1.83856699 72.50166395 4.5234375 72.38378906 C5.43351563 72.36574219 6.34359375 72.34769531 7.28125 72.32910156 C7.97992188 72.30589844 8.67859375 72.28269531 9.3984375 72.25878906 C9.3984375 70.93878906 9.3984375 69.61878906 9.3984375 68.25878906 C13.3584375 68.25878906 17.3184375 68.25878906 21.3984375 68.25878906 C21.3984375 69.57878906 21.3984375 70.89878906 21.3984375 72.25878906 C35.9184375 72.25878906 50.4384375 72.25878906 65.3984375 72.25878906 C65.3984375 70.93878906 65.3984375 69.61878906 65.3984375 68.25878906 C69.3584375 68.25878906 73.3184375 68.25878906 77.3984375 68.25878906 C77.3984375 69.57878906 77.3984375 70.89878906 77.3984375 72.25878906 C79.02307592 72.31274384 80.64822291 72.35156101 82.2734375 72.38378906 C83.17835937 72.40699219 84.08328125 72.43019531 85.015625 72.45410156 C87.58650744 72.50203742 87.58650744 72.50203742 89.3984375 70.25878906 C89.70511605 67.80592843 89.70511605 67.80592843 89.65722656 64.92285156 C89.66668304 63.25101807 89.66668304 63.25101807 89.67633057 61.54541016 C89.6722821 60.3370752 89.66823364 59.12874023 89.6640625 57.88378906 C89.66597595 56.64838379 89.6678894 55.41297852 89.66986084 54.14013672 C89.6715736 50.85287499 89.66350449 47.56580119 89.65234375 44.27856445 C89.64844147 42.26084377 89.65232921 40.24329705 89.65917969 38.22558594 C89.67149754 34.36157078 89.67004728 30.49781478 89.6640625 26.63378906 C89.66811096 25.4254541 89.67215942 24.21711914 89.67633057 22.97216797 C89.67002625 21.8576123 89.66372192 20.74305664 89.65722656 19.59472656 C89.65563538 18.61036621 89.65404419 17.62600586 89.65240479 16.61181641 C89.62676907 14.06902404 89.62676907 14.06902404 87.3984375 12.25878906 C85.33763606 11.96712824 85.33763606 11.96712824 82.94873047 12.03173828 C81.56752518 12.03196487 81.56752518 12.03196487 80.15841675 12.03219604 C78.66460983 12.0476799 78.66460983 12.0476799 77.140625 12.06347656 C75.61334274 12.06772141 75.61334274 12.06772141 74.0552063 12.072052 C70.7944985 12.08327136 67.53406266 12.1083791 64.2734375 12.13378906 C62.06641021 12.14381659 59.85937862 12.15294284 57.65234375 12.16113281 C52.23428178 12.18321639 46.81637907 12.21671111 41.3984375 12.25878906 C41.4396875 11.31003906 41.4809375 10.36128906 41.5234375 9.38378906 C41.74817568 6.15634051 41.74817568 6.15634051 39.3984375 4.25878906 C36.40881647 4.05872604 33.513814 3.97905984 30.5234375 3.99316406 C29.64316895 3.99125061 28.76290039 3.98933716 27.85595703 3.98736572 C25.99316116 3.98600355 24.13035581 3.98970225 22.26757812 3.99804688 C19.40994014 4.008746 16.55293084 3.99815275 13.6953125 3.98535156 C11.88801944 3.98667315 10.08072677 3.98923553 8.2734375 3.99316406 C6.98590576 3.98709137 6.98590576 3.98709137 5.67236328 3.980896 C1.05618692 3.80385531 1.05618692 3.80385531 -2.6015625 6.25878906 Z " fill="#000000" transform="translate(6.6015625,13.7412109375)"/>
<path d="M0 0 C6.73602799 -0.65187368 6.73602799 -0.65187368 10.234375 1.15234375 C12 3 12 3 12.4609375 5.77734375 C12.41839844 7.34162109 12.41839844 7.34162109 12.375 8.9375 C12.35566406 10.49791016 12.35566406 10.49791016 12.3359375 12.08984375 C12 15 12 15 10.9140625 17.12890625 C9.82364429 18.972884 9.82364429 18.972884 10.125 21.12890625 C11.55814721 24.193538 14.16767029 24.61794484 17.1875 25.77734375 C19 27 19 27 20 32 C10.1 32 0.2 32 -10 32 C-9 27 -9 27 -6.93359375 25.41796875 C-5.69802734 24.80888672 -5.69802734 24.80888672 -4.4375 24.1875 C-3.61121094 23.76855469 -2.78492188 23.34960938 -1.93359375 22.91796875 C-1.29550781 22.61503906 -0.65742188 22.31210937 0 22 C-0.65585189 18.39007621 -0.65585189 18.39007621 -2 15 C-2.12227926 13.02362586 -2.17549929 11.0426169 -2.1875 9.0625 C-2.20167969 8.00160156 -2.21585938 6.94070312 -2.23046875 5.84765625 C-2 3 -2 3 0 0 Z " fill="#000000" transform="translate(22,36)"/>
<path d="M0 0 C11.88 0 23.76 0 36 0 C36 1.32 36 2.64 36 4 C24.12 4 12.24 4 0 4 C0 2.68 0 1.36 0 0 Z " fill="#000000" transform="translate(52,64)"/>
<path d="M0 0 C11.88 0 23.76 0 36 0 C36 1.32 36 2.64 36 4 C24.12 4 12.24 4 0 4 C0 2.68 0 1.36 0 0 Z " fill="#000000" transform="translate(52,54)"/>
<path d="M0 0 C11.88 0 23.76 0 36 0 C36 1.32 36 2.64 36 4 C24.12 4 12.24 4 0 4 C0 2.68 0 1.36 0 0 Z " fill="#000000" transform="translate(52,44)"/>
</svg>
