<?xml version="1.0" encoding="UTF-8"?>
<svg version="1.1" xmlns="http://www.w3.org/2000/svg" width="500" height="500">
<path d="M0 0 C2.8394822 1.5999755 5.1501632 3.63369529 7.5625 5.8125 C8.95723837 7.00930956 10.35444174 8.20325154 11.75390625 9.39453125 C12.80989014 10.30259521 12.80989014 10.30259521 13.88720703 11.22900391 C17.15163283 13.96532754 20.56697939 16.4808749 24 19 C29.45147033 23.03149052 34.76292607 27.19384777 40 31.5 C45.90379178 36.35333097 51.92822861 40.99580369 58.06591797 45.54858398 C63.91964866 49.90409814 69.61382601 54.43999301 75.29296875 59.01953125 C81.14777426 63.7399389 87.08008264 68.36171424 93 73 C93.33 65.08 93.66 57.16 94 49 C113.8 49 133.6 49 154 49 C153.8865625 54.04667969 153.773125 59.09335938 153.65625 64.29296875 C153.62004178 67.51542423 153.58863559 70.73653659 153.57421875 73.95898438 C153.55094651 79.06056101 153.51121147 84.15782206 153.36572266 89.25756836 C151.85579221 108.67534371 151.85579221 108.67534371 158.38061523 125.98852539 C161.57705678 128.90691127 164.9951836 130.99613486 168.87445068 132.88572693 C172.58716719 134.83203793 175.77216669 137.48608067 179.0625 140.0625 C180.39074049 141.05412349 181.72117561 142.04282052 183.0546875 143.02734375 C187.64387468 146.45848 192.10464535 150.0420527 196.56445312 153.63867188 C200.52632965 156.83076458 204.5216373 159.97105225 208.5625 163.0625 C213.21955906 166.63156875 217.87122182 170.2067908 222.5 173.8125 C223.07564697 174.2566626 223.65129395 174.7008252 224.24438477 175.15844727 C233.59156016 182.46234412 233.59156016 182.46234412 234.6640625 186.5 C234.59681096 190.80409853 234.37866363 193.36889395 232.125 197.125 C228.53920624 199.27647625 226.2618612 200.09103121 222.09228516 199.86767578 C217.80184692 198.66380578 215.04096932 196.25406562 211.65234375 193.4375 C211.00970581 192.91736328 210.36706787 192.39722656 209.70495605 191.86132812 C208.12900779 190.58357184 206.56343727 189.29303439 205 188 C204.99978263 188.56094933 204.99956526 189.12189865 204.99934131 189.69984645 C204.98582993 222.93502469 204.94637087 256.17005861 204.87314438 289.40515725 C204.86437747 293.39437201 204.85582769 297.38358721 204.84741211 301.37280273 C204.84489352 302.5640907 204.84489352 302.5640907 204.84232404 303.77944509 C204.81564311 316.64446148 204.80655818 329.50943333 204.80395857 342.37447455 C204.80090077 355.57197592 204.77897418 368.76934832 204.73947543 381.96679145 C204.71569235 390.1125384 204.70668523 398.25802802 204.71648689 406.40380494 C204.72242343 412.64656714 204.70212707 418.88899143 204.67193985 425.13167763 C204.66367649 427.69514283 204.66399174 430.2586518 204.67340279 432.82211304 C204.6849606 436.31538187 204.66600192 439.80718438 204.63923645 443.30033875 C204.64990971 444.32076678 204.66058297 445.34119482 204.67157966 446.39254493 C204.6057153 450.98263114 204.49423711 453.29840123 201.79595184 457.12877655 C198.72809485 459.1819757 197.27473295 459.62830982 193.62553406 459.63923645 C192.55550014 459.65452456 191.48546623 459.66981266 190.38300705 459.68556404 C188.63047056 459.67262464 188.63047056 459.67262464 186.8425293 459.65942383 C185.59807163 459.66990187 184.35361397 459.68037991 183.07144547 459.69117546 C179.63024436 459.71512013 176.19034949 459.71677833 172.74916148 459.70887351 C169.06669939 459.70575432 165.38442406 459.731171 161.70204163 459.75312805 C154.53238894 459.79135718 147.36292658 459.80312646 140.19318205 459.80597883 C131.79677767 459.81039328 123.4005375 459.84200767 115.00420308 459.87455893 C98.79397602 459.93638333 82.5838133 459.96677356 66.37348366 459.98311996 C56.11109415 459.99362085 45.84877963 460.01253552 35.58642578 460.04150391 C5.15674022 460.12587814 -25.27170515 460.11750997 -55.70137405 460.03045845 C-65.30938891 460.00410116 -74.91738061 459.99050418 -84.5254252 459.98059416 C-100.34060615 459.96413425 -116.1555918 459.92772394 -131.97065926 459.8646965 C-140.10819453 459.83265914 -148.24557629 459.80832743 -156.38317871 459.80499268 C-163.26726252 459.80206324 -170.1510295 459.78200294 -177.03498846 459.73967606 C-180.56999376 459.71844875 -184.10454636 459.70543031 -187.63961601 459.71381187 C-191.49663983 459.7226845 -195.35281595 459.69294842 -199.2097168 459.65942383 C-200.34067402 459.6680501 -201.47163124 459.67667637 -202.63685989 459.68556404 C-204.19142206 459.66263188 -204.19142206 459.66263188 -205.77738953 459.63923645 C-206.6714535 459.63647107 -207.56551748 459.63370569 -208.48667431 459.63085651 C-212.35499184 458.6598907 -213.69669817 457.25565366 -216 454 C-216.73157362 450.43350823 -216.67720951 446.93079259 -216.63923645 443.30033875 C-216.64759213 442.20984169 -216.6559478 441.11934464 -216.66455668 439.99580222 C-216.68653585 436.33501302 -216.67286352 432.67522221 -216.65942383 429.0144043 C-216.66787395 426.39300269 -216.67851662 423.77160736 -216.69119263 421.15022278 C-216.71503336 415.50316819 -216.72064126 409.85633186 -216.71384621 404.20923424 C-216.70404817 396.04454257 -216.72177745 387.88009299 -216.74621352 379.71544049 C-216.78511268 366.46873559 -216.80176662 353.22209989 -216.80444336 339.9753418 C-216.80709109 327.10779266 -216.82020789 314.2403244 -216.84741211 301.37280273 C-216.84908549 300.57957553 -216.85075887 299.78634832 -216.85248295 298.96908393 C-216.86094246 294.98967376 -216.86960786 291.01026408 -216.87837565 287.03085458 C-216.95084041 254.02057847 -216.98720848 221.010354 -217 188 C-217.94609131 188.78246094 -218.89218262 189.56492188 -219.86694336 190.37109375 C-221.12829645 191.39378078 -222.39012162 192.41588575 -223.65234375 193.4375 C-224.27347046 193.95376953 -224.89459717 194.47003906 -225.5345459 195.00195312 C-229.14506024 197.90268798 -231.77400192 199.74349022 -236.5625 200 C-239.77100809 199.56656069 -241.27181067 198.8369136 -244.125 197.125 C-246.37866363 193.36889395 -246.59681096 190.80409853 -246.6640625 186.5 C-245.14661322 180.78724976 -238.75191954 177.05665966 -234.25 173.5 C-233.27643555 172.7255957 -233.27643555 172.7255957 -232.28320312 171.93554688 C-226.69252667 167.50670785 -221.02570753 163.17987365 -215.34765625 158.86401367 C-209.96010663 154.76017777 -204.65980346 150.55810821 -199.38500977 146.31079102 C-194.91316778 142.71510388 -190.38927963 139.19542965 -185.83178711 135.70922852 C-181.96860638 132.75205915 -178.133887 129.76095469 -174.3125 126.75 C-168.97259768 122.54403062 -163.61679316 118.3591063 -158.25 114.1875 C-157.49533447 113.600896 -156.74066895 113.01429199 -155.96313477 112.40991211 C-152.86507176 110.00234764 -149.76651 107.59542548 -146.66796875 105.18847656 C-138.538745 98.87295777 -130.41518487 92.55106865 -122.32714844 86.18286133 C-116.79331593 81.82929401 -111.23226345 77.51096976 -105.671875 73.19140625 C-101.10385976 69.64109508 -96.5455646 66.0790019 -92 62.5 C-82.92215892 55.35403533 -73.79164276 48.27575265 -64.66796875 41.18847656 C-56.54534313 34.8780838 -48.42794726 28.5618542 -40.34692383 22.19824219 C-34.62623227 17.69720306 -28.87770207 13.23207354 -23.12695312 8.76953125 C-22.40314453 8.2075 -21.67933594 7.64546875 -20.93359375 7.06640625 C-20.25022949 6.5367627 -19.56686523 6.00711914 -18.86279297 5.46142578 C-17.27567849 4.21627935 -15.71492686 2.9376493 -14.16015625 1.65234375 C-9.66837912 -1.78350024 -5.24310378 -1.36348811 0 0 Z M-7 23 C-9.61390287 24.77970427 -9.61390287 24.77970427 -12.375 27.3125 C-13.46171497 28.25341598 -14.55031596 29.19215735 -15.640625 30.12890625 C-16.47883789 30.85231201 -16.47883789 30.85231201 -17.33398438 31.59033203 C-20.37793967 34.16591788 -23.56145125 36.55767228 -26.73120117 38.97485352 C-27.28267822 39.39565186 -27.83415527 39.8164502 -28.40234375 40.25 C-28.97710449 40.68828125 -29.55186523 41.1265625 -30.14404297 41.578125 C-33.67382564 44.28234156 -37.17935872 47.01780626 -40.6875 49.75 C-41.44595215 50.34047119 -42.2044043 50.93094238 -42.98583984 51.53930664 C-44.54124162 52.75024431 -46.09657961 53.96126391 -47.65185547 55.17236328 C-49.98697983 56.98986598 -52.3233471 58.80575788 -54.66015625 60.62109375 C-62.01302566 66.33384553 -69.35706179 72.05696853 -76.67285156 77.81713867 C-82.20668407 82.17070599 -87.76773655 86.48903024 -93.328125 90.80859375 C-97.89614024 94.35890492 -102.4544354 97.9209981 -107 101.5 C-116.07784108 108.64596467 -125.20835724 115.72424735 -134.33203125 122.81152344 C-142.461255 129.12704223 -150.58481513 135.44893135 -158.67285156 141.81713867 C-164.12468366 146.10619476 -169.60124842 150.36325745 -175.08203125 154.61523438 C-176.49586445 155.71298798 -177.89365945 156.83168772 -179.27525139 157.96975231 C-182 160 -182 160 -185.47659492 161.86365986 C-190.48126777 164.7318983 -194.97249016 167.7999659 -196.80150366 173.49616981 C-198.1072709 181.21695381 -197.75244861 189.05170281 -197.58935547 196.8503418 C-197.58540315 199.49252864 -197.58701319 202.13417049 -197.59555054 204.77629089 C-197.60286552 210.45031887 -197.55922913 216.12208023 -197.48022079 221.79553795 C-197.36607092 229.99782453 -197.32994448 238.19902357 -197.31238891 246.40201829 C-197.28180458 259.71256145 -197.18879361 273.02189833 -197.05615234 286.33178711 C-196.92749678 299.25522961 -196.82863423 312.17834193 -196.76904297 325.10229492 C-196.76529101 325.90803776 -196.76153904 326.7137806 -196.75767338 327.54393989 C-196.72855869 333.84608666 -196.70116272 340.1482406 -196.67430949 346.45039737 C-196.54241533 377.30137238 -196.26072742 408.14932505 -196 439 C-156.4 439 -116.8 439 -76 439 C-76 376.3 -76 313.6 -76 249 C-29.8 249 16.4 249 64 249 C64 311.7 64 374.4 64 439 C103.6 439 143.2 439 184 439 C184.46629361 391.68479763 184.46629361 391.68479763 184.78125 344.36914062 C184.81257373 337.98347316 184.84490081 331.59781198 184.87890625 325.2121582 C184.88312623 324.41187236 184.88734621 323.61158652 184.89169407 322.78704959 C184.96119567 309.88380375 185.08728431 296.98170419 185.23444474 284.079137 C185.38432069 270.82749036 185.47299214 257.57644177 185.50541592 244.32398242 C185.52732112 236.15235481 185.59636557 227.98396579 185.72666347 219.81333592 C185.81155564 214.20253951 185.83673452 208.59340512 185.81602204 202.98201386 C185.80581472 199.74758962 185.82976934 196.51995194 185.9072876 193.28628159 C186.69273142 178.99023237 186.69273142 178.99023237 180.59713745 166.7168026 C177.34355093 163.81853374 173.8693012 161.48012021 170.11526299 159.28207815 C166.54859852 157.12029373 163.30350075 154.53789673 160 152 C158.66812002 151.00846147 157.33495273 150.01864767 156 149.03125 C151.21867812 145.44525859 146.61552872 141.65065936 142 137.85546875 C137.42256828 134.10948459 132.75373734 130.51887979 128 127 C122.55031695 122.96595727 117.23720944 118.80626365 112 114.5 C106.09418007 109.64500175 100.06803035 105.0004039 93.92749023 100.44702148 C88.75984397 96.60302017 83.72464549 92.61636383 78.71459961 88.57006836 C74.03493353 84.80100031 69.28454183 81.13475983 64.5 77.5 C58.38953732 72.85640833 52.36255572 68.12397143 46.38500977 63.31079102 C41.91316778 59.71510388 37.38927963 56.19542965 32.83178711 52.70922852 C28.96860034 49.75205452 25.13420326 46.76055956 21.3125 43.75 C20.15629887 42.84108366 19.00004733 41.93223145 17.84375 41.0234375 C15.78616125 39.40598052 13.72997059 37.78681292 11.67578125 36.16503906 C9.22444833 34.2310582 6.76879081 32.30267835 4.3125 30.375 C3.14424683 29.45025879 3.14424683 29.45025879 1.95239258 28.50683594 C1.22173584 27.93481445 0.4910791 27.36279297 -0.26171875 26.7734375 C-1.23564575 26.00652588 -1.23564575 26.00652588 -2.22924805 25.22412109 C-4.09316893 23.81375159 -4.09316893 23.81375159 -7 23 Z M114 69 C112.12945658 80.98013064 112.12945658 80.98013064 115.50585938 92.23828125 C120.80871354 97.71951889 127.22334819 101.6116741 134 105 C134 93.12 134 81.24 134 69 C127.4 69 120.8 69 114 69 Z M-56 269 C-56 325.1 -56 381.2 -56 439 C-23 439 10 439 44 439 C44 382.9 44 326.8 44 269 C11 269 -22 269 -56 269 Z " fill="#000000" transform="translate(256,11)"/>
</svg>
