<?xml version="1.0" encoding="UTF-8"?>
<svg version="1.1" xmlns="http://www.w3.org/2000/svg" width="100" height="100">
<path d="M0 0 C10.06866931 7.25087772 17.72756886 16.79280068 20.3125 29.25 C21.70668558 45.91292143 19.18676434 58.15716957 8.640625 71.33984375 C2.22382219 78.48333577 -8.09918475 84.61508614 -17.80297852 85.42700195 C-34.89720494 85.88980541 -46.9078527 83.46243371 -59.875 71.625 C-64.46886457 66.89304331 -67.05526785 61.2323458 -69.6875 55.25 C-68.6975 54.26 -67.7075 53.27 -66.6875 52.25 C-63.75545648 54.97529686 -61.82191587 57.54307625 -59.9375 61.0625 C-54.03269046 71.07564336 -45.51080668 75.64223111 -34.6875 79.25 C-20.90074074 80.23981861 -9.52080935 78.96810496 1.57421875 69.89453125 C9.58830148 62.31266871 14.38218017 52.64035263 14.90625 41.59277344 C15.06672705 29.56200985 11.72851102 19.12611185 3.3125 10.25 C-5.87758507 1.49154319 -15.51569535 -1.39530301 -27.97973633 -1.29321289 C-38.17994472 -0.88014039 -47.29177419 3.18666636 -54.6875 10.25 C-58.96680708 15.13918458 -62.34803786 20.69408068 -65.6875 26.25 C-66.6775 25.92 -67.6675 25.59 -68.6875 25.25 C-68.29988928 16.14114807 -62.53897905 9.33311637 -56.171875 3.17578125 C-39.79726859 -9.51711334 -17.57628553 -10.86641977 0 0 Z " fill="#000000" transform="translate(75.6875,10.75)"/>
<path d="M0 0 C5.9956617 0.61203352 8.81182531 4.14820197 12.875 8.25 C13.57625 8.91902344 14.2775 9.58804688 15 10.27734375 C15.65742187 10.93347656 16.31484375 11.58960938 16.9921875 12.265625 C17.59401855 12.86149414 18.19584961 13.45736328 18.81591797 14.07128906 C20 16 20 16 19.89038086 18.49780273 C18.90020712 21.28044345 17.83336743 22.68224538 15.76171875 24.76953125 C14.77848633 25.76049805 14.77848633 25.76049805 13.77539062 26.77148438 C13.08638672 27.44501953 12.39738281 28.11855469 11.6875 28.8125 C11.01009766 29.50537109 10.33269531 30.19824219 9.63476562 30.91210938 C8.97541016 31.56630859 8.31605469 32.22050781 7.63671875 32.89453125 C6.73505981 33.78942261 6.73505981 33.78942261 5.81518555 34.70239258 C4 36 4 36 0 36 C1 31 1 31 11 21 C-7.81 20.67 -26.62 20.34 -46 20 C-46 18.68 -46 17.36 -46 16 C-17.785 15.505 -17.785 15.505 11 15 C7.37 11.37 3.74 7.74 0 4 C-0.495 2.515 -0.495 2.515 -1 1 C-0.67 0.67 -0.34 0.34 0 0 Z " fill="#000000" transform="translate(50,32)"/>
</svg>
