<?xml version="1.0" encoding="UTF-8"?>
<svg version="1.1" xmlns="http://www.w3.org/2000/svg" width="96" height="96">
<path d="M0 0 C0.86625 0.680625 1.7325 1.36125 2.625 2.0625 C7.15717984 4.66430694 10.87978931 4.85892785 16 4 C19.34752558 2.18621008 19.34752558 2.18621008 22 0 C26.52513425 -1.81778897 29.99426426 0.15064935 34.30859375 1.828125 C40.15333726 4.37300606 42.97474573 6.96843216 47 12 C47 16.62 47 21.24 47 26 C23.24 26 -0.52 26 -25 26 C-25 12 -25 12 -22.75 7.9375 C-17.76243798 3.21307074 -6.7794352 -2.51807593 0 0 Z M-10.5 11.25 C-11.2940625 11.66765625 -12.088125 12.0853125 -12.90625 12.515625 C-15.41675128 14.04848237 -15.41675128 14.04848237 -17 18 C1.48 18 19.96 18 39 18 C36.56156862 13.12313725 34.49768592 11.97278394 29.69921875 9.70703125 C25.754248 8.67368869 23.97713839 10.0009128 20.55078125 11.91796875 C14.75750163 14.3754549 7.29895025 14.14746096 1.39453125 12.09375 C-0.45206859 11.15195044 -2.23459686 10.08640193 -4 9 C-6.66812184 9 -8.15681258 9.98711327 -10.5 11.25 Z " fill="#000000" transform="translate(37,58)"/>
<path d="M0 0 C4.8846525 2.26787438 7.73212562 5.1153475 10 10 C10.75381535 15.5997712 10.77303575 20.33499991 8.375 25.5 C3.80134327 30.3143755 0.6912538 32.25156236 -6 32.5 C-12.6912538 32.25156236 -15.80134327 30.3143755 -20.375 25.5 C-22.77303575 20.33499991 -22.75381535 15.5997712 -22 10 C-17.52212837 0.3553534 -9.85292056 -1.32635469 0 0 Z M-11.375 10.625 C-13.48706506 13.71186432 -13.61195145 15.3282913 -13 19 C-11.5 21.5 -11.5 21.5 -9 23 C-5.3282913 23.61195145 -3.71186432 23.48706506 -0.625 21.375 C1.48706506 18.28813568 1.61195145 16.6717087 1 13 C-0.5 10.5 -0.5 10.5 -3 9 C-6.6717087 8.38804855 -8.28813568 8.51293494 -11.375 10.625 Z " fill="#000000" transform="translate(54,12)"/>
</svg>
