<?xml version="1.0" encoding="UTF-8"?>
<svg version="1.1" xmlns="http://www.w3.org/2000/svg" width="96" height="96">
<path d="M0 0 C1.125 3.75 1.125 3.75 0 6 C-0.66 6 -1.32 6 -2 6 C-2.99 8.97 -3.98 11.94 -5 15 C-4.34 14.67 -3.68 14.34 -3 14 C4.68103546 13.26904343 11.51795141 13.53378402 18 18 C25.04099776 24.0494847 29.35682965 31.04572056 30.21875 40.36523438 C31.0594903 54.45814368 30.1537447 65.94795409 20.79296875 77.125 C15.94663023 82.19306643 10.47712575 84.70936436 3.52416992 85.29052734 C0.13921146 85.3310449 -3.24492679 85.37136816 -6.63012695 85.37060547 C-8.79654232 85.37496787 -10.96089871 85.41130849 -13.12695312 85.44921875 C-22.86342538 85.52812581 -31.06622462 84.39949365 -38.58984375 77.609375 C-48.24427932 66.5910164 -48.79742589 54.36432184 -48.18652344 40.4296875 C-47.46942057 31.08857794 -43.01837091 24.0408121 -36 18 C-29.18841361 13.22672924 -22.05098275 13.55203187 -14 14 C-16.87502669 10.19416797 -16.87502669 10.19416797 -20.75 7.5 C-21.4925 7.005 -22.235 6.51 -23 6 C-23.3125 3.3125 -23.3125 3.3125 -23 1 C-20.875 0.25 -20.875 0.25 -18 0 C-14.8125 1.875 -14.8125 1.875 -12 4 C-11.34 4.33 -10.68 4.66 -10 5 C-9.38125 4.195625 -8.7625 3.39125 -8.125 2.5625 C-5.20275262 -0.96138654 -4.22572572 -1.26771771 0 0 Z M-35.25 27.125 C-39.08438585 33.42434819 -41 38.56755397 -41 46 C-36.71 46 -32.42 46 -28 46 C-27.67 43.69 -27.34 41.38 -27 39 C-25.68 39 -24.36 39 -23 39 C-22.67 41.31 -22.34 43.62 -22 46 C-18.7 46 -15.4 46 -12 46 C-11.67 42.37 -11.34 38.74 -11 35 C-9.68 35 -8.36 35 -7 35 C-6.505 40.445 -6.505 40.445 -6 46 C-2.7 46 0.6 46 4 46 C4.33 43.69 4.66 41.38 5 39 C6.32 39 7.64 39 9 39 C9.495 42.465 9.495 42.465 10 46 C14.29 46 18.58 46 23 46 C22.63048626 37.25484152 20.89912204 30.80164399 14.5 24.5625 C9.08405165 21.17753228 4.35067071 20.22746761 -2 21 C-3.34469466 21.64344268 -4.67932176 22.30860199 -6 23 C-9.04245883 23.25353824 -11.1798389 23.4234165 -13.921875 22.0078125 C-21.42855518 18.36735482 -29.595047 21.78421105 -35.25 27.125 Z M-41 53 C-39.66672337 63.66621304 -37.18386937 68.90740169 -28.875 75.75 C-23.69072009 79.2061866 -17.26804549 78.22337729 -11.28588867 78.24023438 C-9.20515627 78.24991783 -7.12542168 78.28094366 -5.04492188 78.3125 C-3.71094333 78.31903307 -2.37695776 78.32428235 -1.04296875 78.328125 C0.16335205 78.3374707 1.36967285 78.34681641 2.61254883 78.35644531 C8.89663063 77.69520139 13.14051177 74.53216509 17.38671875 70.09765625 C21.41665453 64.85776396 23 59.53656359 23 53 C1.88 53 -19.24 53 -41 53 Z " fill="#000000" transform="translate(57,6)"/>
<path d="M0 0 C3.46145258 1.86385908 6.15115197 4.09467685 8.4375 7.3125 C8.8125 10.1875 8.8125 10.1875 8.4375 12.3125 C6.125 13 6.125 13 3.4375 13.3125 C1.625 11.875 1.625 11.875 0.4375 10.3125 C-0.119375 10.621875 -0.67625 10.93125 -1.25 11.25 C-3.70680044 12.3788002 -5.88729417 12.9509857 -8.5625 13.3125 C-9.5625 12.3125 -9.5625 12.3125 -10.0625 10.1875 C-9.19868689 5.22057463 -5.12727569 0.62527752 0 0 Z " fill="#000000" transform="translate(48.5625,63.6875)"/>
</svg>
