<?xml version="1.0" encoding="UTF-8"?>
<svg version="1.1" xmlns="http://www.w3.org/2000/svg" width="100" height="100">
<path d="M0 0 C3.42847788 2.84343486 5.53867335 6.33483555 6.12890625 10.765625 C6.04249481 13.18514524 5.88923048 15.6026578 5.69140625 18.015625 C5.36047406 22.19232173 5.06624896 26.32285574 5.19140625 30.515625 C5.12890625 33.765625 5.12890625 33.765625 3.12890625 36.765625 C2.46890625 36.765625 1.80890625 36.765625 1.12890625 36.765625 C0.94328125 38.4053125 0.94328125 38.4053125 0.75390625 40.078125 C0.12890625 43.765625 0.12890625 43.765625 -1.87109375 46.765625 C-2.05975551 49.72132587 -2.07444135 52.1186099 -1.18359375 54.953125 C-1.08046875 55.55125 -0.97734375 56.149375 -0.87109375 56.765625 C-2.30859375 58.515625 -2.30859375 58.515625 -3.87109375 59.765625 C-6.42839033 57.44807498 -7.75106942 55.60832215 -8.2421875 52.16015625 C-8.36550622 46.78491103 -8.15565038 43.18714355 -4.87109375 38.765625 C-4.52046875 37.693125 -4.16984375 36.620625 -3.80859375 35.515625 C-2.87109375 32.765625 -2.87109375 32.765625 -0.87109375 31.765625 C-0.21896083 29.74099245 -0.21896083 29.74099245 0.12890625 27.765625 C-0.53109375 27.765625 -1.19109375 27.765625 -1.87109375 27.765625 C-1.71511719 27.07597656 -1.55914062 26.38632812 -1.3984375 25.67578125 C0.13377739 18.27853186 0.53627252 11.9877238 -1.87109375 4.765625 C-3.85109375 4.435625 -5.83109375 4.105625 -7.87109375 3.765625 C-7.87109375 3.105625 -7.87109375 2.445625 -7.87109375 1.765625 C-14.19157406 0.69062528 -20.33974729 -0.09226561 -25.87109375 3.765625 C-28.66220543 7.44452735 -29.23984331 10.06876703 -29.12109375 14.640625 C-29.0953125 15.68476563 -29.06953125 16.72890625 -29.04296875 17.8046875 C-28.84657336 21.18804442 -28.47704938 24.43286902 -27.87109375 27.765625 C-28.53109375 27.765625 -29.19109375 27.765625 -29.87109375 27.765625 C-29.52322667 29.74099245 -29.52322667 29.74099245 -28.87109375 31.765625 C-28.21109375 32.095625 -27.55109375 32.425625 -26.87109375 32.765625 C-25.8359375 35.015625 -25.8359375 35.015625 -24.80859375 37.765625 C-23.75681303 41.02160073 -23.75681303 41.02160073 -21.87109375 43.765625 C-21.59765625 46.05859375 -21.59765625 46.05859375 -21.49609375 48.953125 C-21.44710937 49.89542969 -21.398125 50.83773437 -21.34765625 51.80859375 C-22.05249851 55.79042653 -23.89349622 58.16937866 -26.87109375 60.765625 C-29.27190211 62.2812323 -31.75857711 63.41371204 -34.37109375 64.515625 C-35.02207031 64.80566406 -35.67304687 65.09570312 -36.34375 65.39453125 C-39.1219918 66.62369277 -41.90503594 67.77791758 -44.76171875 68.8125 C-47.12308666 69.61238841 -47.12308666 69.61238841 -48.12109375 72.265625 C-48.36859375 73.090625 -48.61609375 73.915625 -48.87109375 74.765625 C-49.36609375 75.755625 -49.36609375 75.755625 -49.87109375 76.765625 C-35.35109375 76.765625 -20.83109375 76.765625 -5.87109375 76.765625 C-5.54109375 78.085625 -5.21109375 79.405625 -4.87109375 80.765625 C-21.37109375 80.765625 -37.87109375 80.765625 -54.87109375 80.765625 C-54.87109375 71.52238176 -54.87109375 71.52238176 -50.87109375 66.765625 C-46.71740774 62.98321819 -42.18703646 60.8548092 -37.12109375 58.578125 C-35.58381858 57.87809309 -34.04731632 57.17636053 -32.51171875 56.47265625 C-31.83657227 56.1681958 -31.16142578 55.86373535 -30.46582031 55.55004883 C-28.86903942 54.871037 -28.86903942 54.871037 -27.87109375 53.765625 C-27.49854793 48.17743776 -27.71871231 45.49419717 -30.87109375 40.765625 C-30.87109375 39.445625 -30.87109375 38.125625 -30.87109375 36.765625 C-32.35609375 36.270625 -32.35609375 36.270625 -33.87109375 35.765625 C-36.02124979 31.46531293 -35.10073471 25.73892123 -35.12109375 21.015625 C-35.14171875 19.83484375 -35.16234375 18.6540625 -35.18359375 17.4375 C-35.21863009 9.65943358 -34.80825044 4.77108766 -29.18359375 -0.984375 C-19.95258755 -8.01536253 -9.14834253 -5.58004841 0 0 Z " fill="#000000" transform="translate(54.87109375,5.234375)"/>
<path d="M0 0 C5.82485779 3.51996782 10.54466582 8.98962934 12.5625 15.5 C13.36764105 23.33608208 13.68710392 31.11922577 8.5625 37.5 C3.75801361 42.54521222 -0.59927055 46.10562995 -7.70703125 46.8359375 C-16.22326573 46.92983204 -22.11345494 46.6177288 -28.40234375 40.62890625 C-34.7841668 33.72505269 -35.91792252 28.29832071 -35.7421875 18.9453125 C-35.04689797 11.08319245 -31.38995981 6.95041296 -25.53515625 1.9453125 C-18.47077988 -2.92213491 -7.84396301 -3.47595223 0 0 Z M-28.4375 12.0625 C-31.35138882 17.30551763 -31.39360282 22.67717706 -30.4375 28.5 C-28.48185326 33.94530996 -24.84451267 37.84964702 -19.80859375 40.6484375 C-14.33497817 42.61425002 -8.54002183 42.61425002 -3.06640625 40.6484375 C1.96951267 37.84964702 5.60685326 33.94530996 7.5625 28.5 C8.51860282 22.67717706 8.47638882 17.30551763 5.5625 12.0625 C1.85720996 7.1186729 -2.17017371 4.03649234 -8.33984375 3.0234375 C-17.18729717 2.59947378 -23.09586177 4.93535595 -28.4375 12.0625 Z " fill="#000000" transform="translate(87.4375,53.5)"/>
<path d="M0 0 C1.32 0 2.64 0 4 0 C4 3.3 4 6.6 4 10 C7.3 10 10.6 10 14 10 C14 11.32 14 12.64 14 14 C10.7 14 7.4 14 4 14 C4 17.3 4 20.6 4 24 C2.68 24 1.36 24 0 24 C0 20.7 0 17.4 0 14 C-3.3 14 -6.6 14 -10 14 C-10 12.68 -10 11.36 -10 10 C-6.7 10 -3.4 10 0 10 C0 6.7 0 3.4 0 0 Z " fill="#000000" transform="translate(74,64)"/>
</svg>
